<?xml version="1.0" encoding="utf-8"?>
<!-- Generator: Adobe Illustrator 23.0.1, SVG Export Plug-In . SVG Version: 6.00 Build 0)  -->
<svg version="1.1"
	 id="Layer_1" xmlns:cc="http://creativecommons.org/ns#" xmlns:dc="http://purl.org/dc/elements/1.1/" xmlns:inkscape="http://www.inkscape.org/namespaces/inkscape" xmlns:rdf="http://www.w3.org/1999/02/22-rdf-syntax-ns#" xmlns:sodipodi="http://sodipodi.sourceforge.net/DTD/sodipodi-0.dtd" xmlns:svg="http://www.w3.org/2000/svg"
	 xmlns="http://www.w3.org/2000/svg" xmlns:xlink="http://www.w3.org/1999/xlink" x="0px" y="0px" viewBox="0 0 38 38"
	 style="enable-background:new 0 0 38 38;" xml:space="preserve">
<style type="text/css">
	.st0{fill:#9C0000;}
</style>
<g>
	<path class="st0" d="M25.5,13.6c-1.7-1.7-3.9-2.6-6.2-2.6c-4.9,0-8.8,4-8.8,8.8c0,4.9,4,8.8,8.8,8.8c0,0,0,0,0,0
		c2.4,0,4.6-0.9,6.2-2.6c1.7-1.7,2.6-3.9,2.6-6.2C28.1,17.5,27.2,15.2,25.5,13.6z M26.9,19c0,0.3-0.3,0.5-0.6,0.5
		c-0.3,0-0.6-0.2-0.6-0.5c0-0.3,0.3-0.6,0.6-0.6C26.6,18.4,26.9,18.7,26.9,19z M22.4,13.5c0.5,0,1.3,0.4,2,1c1,0.9,1.4,1.8,1.1,2.1
		c-0.2,0.3-1.2,0-2.2-0.9c-1-0.9-1.4-1.8-1.1-2.1C22.2,13.6,22.3,13.6,22.4,13.5l0-0.2L22.4,13.5z M17.3,18c0.5-0.5,1.2-0.8,1.9-0.8
		c0,0,0,0,0,0c1.5,0,2.7,1.1,2.7,2.6c0,0.7-0.3,1.3-0.8,1.8c-0.5,0.5-1.2,0.8-1.9,0.8c-0.7,0-1.4-0.3-1.9-0.8
		c-0.5-0.5-0.8-1.1-0.8-1.8C16.6,19.1,16.8,18.5,17.3,18z"/>
	<path class="st0" d="M36.3,10.7h-8.4l-3.4-4H13.6l-3.5,4H1.7c-0.9,0-1.7,0.8-1.7,1.7v17.3c0,0.9,0.8,1.7,1.7,1.7h34.6
		c0.9,0,1.7-0.8,1.7-1.7V12.4C38,11.4,37.2,10.7,36.3,10.7z M36.3,30.5H1.7c-0.5,0-0.9-0.4-0.9-0.8v-3.2h11
		c-1.6-1.8-2.5-4.1-2.5-6.6c0-1.1,0.2-2.2,0.5-3.2h-9v-4.3c0-0.5,0.4-0.9,0.9-0.9h8.7l3.5-4h10.2l3.4,4h8.7c0.5,0,0.9,0.4,0.9,0.9
		v4.3h-8.5c0.3,1,0.5,2.1,0.5,3.2c0,2.5-1,4.9-2.5,6.6h10.5v3.2C37.1,30.1,36.8,30.5,36.3,30.5z"/>
	<rect x="3.6" y="8.8" class="st0" width="4.1" height="1.2"/>
	<path class="st0" d="M29.9,15.5h6.2c0.1,0,0.3-0.1,0.3-0.3v-2.6c0-0.1-0.1-0.3-0.3-0.3h-5.2h-0.9c-0.1,0-0.3,0.1-0.3,0.3v2.6
		C29.7,15.4,29.8,15.5,29.9,15.5z"/>
</g>
</svg>
